<svg width="64" height="64" fill="none" xmlns="http://www.w3.org/2000/svg"><path d="m22.138 51.962 6.576 7.677L34.362 61l-8.197-9.486" fill="#000"/><path d="m28.714 59.64-.38.325.105.122.158.038.117-.486ZM34.362 61l-.118.486a.5.5 0 0 0 .496-.813L34.36 61Zm-12.604-8.712 6.576 7.677.76-.651-6.576-7.677-.76.65Zm6.839 7.837 5.647 1.361.235-.972-5.648-1.36-.234.971Zm6.143.548-8.196-9.486-.757.654 8.196 9.486.757-.654Z" fill="#000"/><path d="M13.758 10.37c-.142.155-.28.316-.413.48l.004-.009c-.071.094-.147.183-.218.276-.142.187-.28.382-.41.582-.052.08-.11.16-.164.245-.053.09-.102.182-.155.271a10.101 10.101 0 0 0-.423.796c-.075.156-.146.316-.218.476a15.922 15.922 0 0 0-.316.832c-.04.12-.08.24-.115.36-.049.17-.098.338-.142.511-.12.129-.37 2.39-.415 10.41-.044 8.022-.019 15.566 0 18.336.038 2.24 1.145 6.804 5.161 8.15l.8.215a7.034 7.034 0 0 1-.8-.215l-3.994-1.078s-.806-.263-1.201-.428c-.2-.08-.583-.275-.583-.275a5.96 5.96 0 0 1-.556-.338 7.162 7.162 0 0 1-1.472-1.357c-1.316-1.596-2.121-3.869-2.121-6.461l.013-25.18c.005-.315.018-.631.04-.943.005-.106.022-.208.031-.31.023-.21.045-.414.076-.619.018-.12.04-.236.062-.356.036-.182.071-.364.111-.547l.094-.364a11.265 11.265 0 0 1 .436-1.36c.044-.117.089-.228.137-.344.072-.16.143-.32.218-.475.054-.107.103-.214.156-.316.084-.165.173-.325.267-.48.053-.09.102-.183.155-.272.014-.018.023-.04.036-.062.036-.062.085-.12.125-.182.133-.2.266-.396.409-.583.07-.098.142-.187.218-.276.133-.164.27-.324.413-.48l.24-.253c.156-.152.312-.298.472-.436.075-.067.146-.138.227-.2.226-.183.462-.36.702-.516.014-.009.022-.018.036-.027.133-.08.267-.151.4-.227.098-.057.2-.12.302-.173.143-.071.29-.125.432-.187.102-.04.2-.093.302-.129.165-.062.334-.102.498-.151.09-.027.174-.058.263-.08.258-.058.52-.107.782-.133l28.826-3.451a5.921 5.921 0 0 1 1.664.049l7.848 1.356a5.925 5.925 0 0 0-1.64-.045l-31.94 3.456a5.872 5.872 0 0 0-.782.133c-.076.018-.147.05-.218.067a5.847 5.847 0 0 0-.543.164c-.102.036-.2.085-.302.13-.142.062-.289.115-.431.186-.102.05-.2.116-.298.17-.134.075-.271.146-.405.23-.013.01-.022.018-.036.027-.244.16-.48.334-.707.52-.075.063-.15.134-.226.2-.16.138-.32.285-.472.436-.08.08-.16.17-.24.254Z" fill="#000" stroke="#000" stroke-miterlimit="10"/><path d="M57.98 38.413h.5-.5Zm.013-25.18.5.001h-.5Zm-7.635-8.831.053.497-.053-.497Zm-31.944 3.45.054.498-.054-.497ZM10.77 18.336h-.5.5Zm-.014 25.179h-.5.5Zm7.636 8.84-.054-.496.054.497Zm7.77-.84.377-.327-.171-.198-.26.028.053.497ZM34.356 61l-.378.327a.5.5 0 0 0 .782-.032L34.357 61Zm8.21-11.256-.054-.497-.22.024-.13.179.403.294Zm7.769-.84.053.497-.053-.497Zm8.144-10.49.013-25.18h-1l-.013 25.179h1Zm.013-25.18c0-5.496-3.555-9.832-8.19-9.33l.109.995c3.806-.413 7.081 3.167 7.081 8.335h1Zm-8.189-9.33L18.36 7.357l.108.994L50.41 4.899l-.107-.994ZM18.361 7.357c-2.28.245-4.307 1.632-5.752 3.614-1.447 1.984-2.337 4.594-2.34 7.364l1 .001c.003-2.562.827-4.966 2.148-6.776 1.322-1.813 3.115-3 5.05-3.21l-.106-.993ZM10.27 18.334l-.014 25.18h1l.014-25.18h-1Zm-.014 25.18c0 5.495 3.555 9.841 8.19 9.338l-.108-.994c-3.806.413-7.082-3.175-7.082-8.344h-1Zm8.19 9.338 7.769-.84-.108-.995-7.769.84.108.995Zm7.337-1.01 8.196 9.485.756-.654-8.196-9.486-.756.654Zm8.978 9.453 8.21-11.256-.809-.59-8.209 11.256.808.59Zm7.86-11.053 7.768-.841-.107-.994-7.77.84.108.995Zm7.768-.841c2.28-.248 4.307-1.637 5.752-3.62 1.447-1.986 2.337-4.597 2.339-7.367l-1-.001c-.002 2.562-.827 4.967-2.147 6.779-1.322 1.814-3.116 3.005-5.051 3.215l.108.994Z" fill="#000"/><path d="m26.161 51.514-7.769.84c-4.22.459-7.636-3.508-7.636-8.84l.014-25.18c.004-5.332 3.428-10.028 7.644-10.481l31.944-3.451c4.22-.458 7.635 3.5 7.635 8.832l-.013 25.18c-.004 5.331-3.429 10.032-7.644 10.49l-7.77.84" stroke="#000" stroke-miterlimit="10" style="mix-blend-mode:overlay" opacity=".7"/><path d="M44.897 24.685c0-3.918-2.504-6.817-5.595-6.484-2.121.231-3.962 1.921-4.918 4.216-.952-2.086-2.793-3.38-4.919-3.153-3.09.334-5.599 3.776-5.603 7.694 0 4.175 2.401 6.96 4.496 8.912 1.436 1.338 2.824 2.334 2.975 2.45l3.042 2.157 3.046-2.815c.151-.147 1.539-1.441 2.975-3.091 2.095-2.406 4.5-5.706 4.505-9.886h-.004Z" fill="#3FCBFF"/><path d="m26.166 51.514-6.124.663" stroke="#000" stroke-miterlimit="10"/></svg>