<svg width="64" height="64" fill="none" xmlns="http://www.w3.org/2000/svg"><g clip-path="url('#clip0_3758_40783')"><path d="m28.36 13.437-7.756 2.975-.023 9.434 7.756-2.964.023-9.446Z" fill="#000"/><path d="M51.906 43.673c-.209.104-.405.208-.637.278a4.128 4.128 0 0 1-.764.208v-.011c-.116.011-.22.034-.324.046-.07.011-.15.023-.232.023a2.2 2.2 0 0 1-.474.046h-.417c-.127 0-.266-.023-.405-.023h-.012a4.81 4.81 0 0 1-.405-.046c-.139-.023-.266-.047-.405-.07-.116-.023-.22-.058-.324-.08a88.215 88.215 0 0 1-3.033-.81 91.036 91.036 0 0 1-8.439-2.837h-.011c-3.508-1.378-6.599-2.882-9.33-4.457C9.178 25.835 6.643 12.557 6.342 7.533V7.44l-.023 9.435v.092c.3 5.036 2.847 18.313 20.362 28.42 2.732 1.574 5.823 3.078 9.33 4.456a90.996 90.996 0 0 0 8.439 2.836c.984.278 2.002.544 3.033.81.104.035.22.058.324.081.127.023.266.047.405.07.139.023.266.046.405.046h.012c.127.023.266.023.405.023h.428c.162-.011.313-.023.463-.035.07-.011.15-.034.232-.034.104-.012.208-.023.312-.047h.012c.266-.046.532-.104.775-.185.36-.127.672-.266.961-.44l.428-.289 7.063-5.169.023-9.434-7.826 5.608v-.011Z" fill="#3FCBFF"/><path d="M21.682 3.935c4.046 3.636 6.543 9.666 6.68 9.974l-7.638 2.94c.4 5.415 7.102 10.328 12.436 13.406 3.591 2.075 6.418 3.26 6.566 3.317l7.58-2.816 12.425 7.182-7.648 5.46c-.57.41-1.357.684-2.246.81a6.85 6.85 0 0 1-2.644-.149c-8.47-2.143-15.172-4.913-20.484-7.98C9.485 26.13 6.977 13.055 6.692 8.096c-.034-.57.274-1.14.866-1.584.604-.456 1.448-.787 2.406-.912l11.718-1.664Z" fill="#fff"/><path d="m49.68 32.22 9.896 5.72-7.627 5.444c-.568.409-1.352.682-2.239.807a6.829 6.829 0 0 1-2.636-.148c-8.445-2.137-15.128-4.899-20.424-7.956C9.477 26.165 6.976 13.13 6.692 8.185c-.034-.568.273-1.137.864-1.58.602-.455 1.443-.784 2.398-.91l11.684-1.659c4.034 3.626 6.523 9.638 6.66 9.945l-7.615 2.932c.398 5.4 7.08 10.298 12.4 13.366 3.58 2.069 6.398 3.25 6.546 3.308l6.756-2.51" stroke="#000" stroke-linejoin="bevel"/><path d="M40.545 14.412C51.16 8.551 59.711 6.277 61.95 9.302c2.873 3.88-5.635 15.16-19.447 26.296M33.103 42.558C18.402 52.532 5.106 57.391 2.229 53.508c-2.17-2.936 2.157-10.092 10.36-18.217" stroke="#000" stroke-miterlimit="10"/><path d="m37.764 5.52-.17-3.693 2.284 2.906M40.581 4.828l3.692-.171-2.905 2.285M41.224 7.929l.17 3.692-2.284-2.906M38.306 8.478l-3.692.17 2.905-2.284" stroke="#000" stroke-linejoin="round"/></g><defs><clipPath id="clip0_3758_40783"><path fill="#fff" d="M0 0h64v64H0z"/></clipPath></defs></svg>