<svg width="64" height="64" fill="none" xmlns="http://www.w3.org/2000/svg"><g clip-path="url('#clip0_3758_40799')"><path d="M37.02 24.1C31.746 12.983 30.744 2.395 34.782.477 38.819-1.441 46.38 6.03 51.655 17.145c5.275 11.116 6.276 21.703 2.239 23.622-4.038 1.919-11.599-5.553-16.874-16.668Z" fill="#3FCBFF"/><path fill-rule="evenodd" clip-rule="evenodd" d="M34.859 18.093a6.484 6.484 0 0 1 3.722-.885 6.522 6.522 0 0 1 6.081 6.927 6.517 6.517 0 0 1-4.103 5.638 43.82 43.82 0 0 1-3.161-5.425 45.195 45.195 0 0 1-2.54-6.255Z" fill="#000"/><path d="M30.167 6.587c-2.773 5.9-4.474 7.45-12.817 12.712-6.143 4.39-6.877 8.786-4.723 14.535 2.157 5.757 7.928 9.396 13.113 8.028l1.546-.304c7.325-1.995 13.054-1.87 16.938-1.255 1.944.308 3.43.74 4.426 1.091" stroke="#000" stroke-miterlimit="10"/><path d="M12.534 47.71c-1.095-.733-4.291-1.29-6.84-4.586-2.55-3.296-2.296-7.357-1.804-9.142 1.159-4.205 4.75-7.059 8.196-8.889" stroke="#000" stroke-miterlimit="10"/><path d="M20.622 61.31c-3.108-2.08-7.554-8.264-7.972-13.656.42-2.289 2.529-6.303 7.602-4.051.585 2.248 3.343 11.807 7.103 11.478" stroke="#000" stroke-linecap="round" stroke-linejoin="round"/><path d="M20.494 43.528c.232-.267 1.169-.8 2.402-1.365" stroke="#000"/><ellipse cx="25.023" cy="58.952" rx="1.299" ry="4.828" transform="rotate(43.933 25.023 58.952)" fill="#000" stroke="#000"/><path d="m49.48 11.002 2.822-3.649M54.778 21.132l5.035-.498M52.664 15.808l5.803-3.395" stroke="#000"/></g><defs><clipPath id="clip0_3758_40799"><path fill="#fff" d="M0 0h64v64H0z"/></clipPath></defs></svg>