<svg width="64" height="64" fill="none" xmlns="http://www.w3.org/2000/svg"><mask id="mask0_99_2677" style="mask-type:alpha" maskUnits="userSpaceOnUse" x="0" y="0" width="64" height="64"><path fill="#C4C4C4" d="M0 0h64v64H0z"/></mask><g clip-path="url('#clip0_99_2677')"><path d="M42.512 12.912c.184 0 1.472 0 1.6.048 13.8 4.536 16.36 18.24 11.952 31.08-4.248 12.368-15.152 20.472-27.424 15.856a17.83 17.83 0 0 0 4.256 2.136c11.144 3.832 23.904-3.856 28.44-17.16 4.536-13.304-.752-27.2-11.888-31.008a18.12 18.12 0 0 0-6.936-.952Z" fill="#00B5EF"/><path d="M61.138 44.587c4.502-13.365-.917-27.253-12.103-31.021C37.85 9.798 25.132 17.578 20.63 30.942c-4.501 13.364.917 27.253 12.103 31.02 11.186 3.769 23.904-4.01 28.405-17.375Z" stroke="#000" stroke-width="1.002" stroke-linejoin="round"/><path d="M49.875 41.526c2.89-8.412.134-16.982-6.154-19.142-6.29-2.16-13.73 2.907-16.62 11.318-2.89 8.411-.134 16.982 6.155 19.142 6.289 2.16 13.73-2.907 16.619-11.318Z" fill="#00B5EF"/><path d="M43.55 38.589c1.474-4.292.068-8.664-3.141-9.767-3.21-1.102-7.006 1.483-8.48 5.774-1.475 4.292-.068 8.664 3.14 9.767 3.21 1.102 7.007-1.483 8.481-5.774Z" fill="#fff"/><path d="m38.728 36.392-5.496-4.776" stroke="#000" stroke-linecap="round" stroke-linejoin="round"/><path d="M26.904 29.752c.208.315.408.627.6.936A5.919 5.919 0 0 0 29.44 32.8c.342.217.727.358 1.128.416a3.28 3.28 0 0 0 3.744-2.752 3.616 3.616 0 0 0-.712-2.656c-.643-.5-1.325-.946-2.04-1.336-.512-.28-.912-.488-1.248-.656" fill="#000"/><path d="M26.904 29.752c.208.315.408.627.6.936A5.919 5.919 0 0 0 29.44 32.8c.342.217.727.358 1.128.416a3.28 3.28 0 0 0 3.744-2.752 3.616 3.616 0 0 0-.712-2.656c-.643-.5-1.325-.946-2.04-1.336-.512-.28-.912-.488-1.248-.656" stroke="#000" stroke-linecap="round" stroke-linejoin="round"/><path d="M28.256 21.896a9.47 9.47 0 0 0-.864-.656c-2.144-1.472-4.52-2.656-6.76-4L9.28 10.648a6.766 6.766 0 0 1-1.68-.984l5 6.168 7.896 9.768c1.304 1.6 2.488 3.784 4.728 4.128a4.328 4.328 0 0 0 4.936-3.624c.24-1.752-.672-3.152-1.904-4.208Z" fill="#fff" stroke="#000" stroke-linecap="round" stroke-linejoin="round"/><path d="M9.28 10.648S3.336 4.144 9.488.856c6.152-3.288 6.24 13.472 6.24 13.472M8.52 10.92S.472 8.184.672 14.904c.2 6.72 13.176 2.344 13.176 2.344" stroke="#000" stroke-linejoin="round"/><path d="M3.344 10.48s-4.8-2.456-1.968-4.208C4.208 4.52 8.152 9.12 8.152 9.12" stroke="#000" stroke-linejoin="round"/></g><defs><clipPath id="clip0_99_2677"><path fill="#fff" d="M0 0h64v64H0z"/></clipPath></defs></svg>