<svg width="64" height="64" fill="none" xmlns="http://www.w3.org/2000/svg"><path fill-rule="evenodd" clip-rule="evenodd" d="M63.405 24.645c.307 4.906-2.75 9.874-9.217 13.623-12.289 7.144-32.258 7.19-44.547.093C3.205 34.627.194 29.659.563 24.737v-.57 13.592c0 4.629 2.995 9.38 9.14 12.945 12.289 7.097 32.258 7.05 44.547-.077 6.144-3.564 9.216-8.224 9.216-12.868V24.166s-.015.17-.061.479Z" fill="#3FCBFF"/><path d="M4.487 17.601c-2.069 2.413-3.226 5.13-3.21 8 .052 9.832 13.847 17.728 30.811 17.636 16.964-.093 30.673-8.137 30.62-17.969-.053-9.831-13.848-17.727-30.812-17.635-7.828.043-14.962 1.779-20.372 4.602-.76.396-1.485.814-2.174 1.252" stroke="#000" stroke-miterlimit="10"/><path fill-rule="evenodd" clip-rule="evenodd" d="m34.628 29.96-16.596-8.142 3.76-1.564 16.58 8.112-3.744 1.594Z" fill="#3FCBFF"/><path fill-rule="evenodd" clip-rule="evenodd" d="m41.168 33.165-16.596-8.127 3.76-1.579 16.58 8.111-3.744 1.595Z" fill="#3FCBFF"/><path fill-rule="evenodd" clip-rule="evenodd" d="m26.04 27.798-2.69-1.318 2.353-.92 2.69 1.303-2.354.935ZM31.51 30.466l-2.69-1.319 2.354-.92 2.675 1.304-2.338.935ZM39.136 27.323l-2.69-1.319 5.44-2.177 2.675 1.303-5.425 2.193ZM32.534 17.31a22.972 22.972 0 0 0-6.495 1.104l-2.812 1.135 2.69 1.319 2.353-.951c.53-.183 1.071-.332 1.62-.445a6.095 6.095 0 0 1 3.867.568c.855.46 1.36.981.626 1.702-.394.283-.82.52-1.268.705l-2.14.859 2.675 1.318 2.43-.966s4.08-1.533 3.53-3.327c-.688-2.1-5.12-3.02-7.076-3.02Z" fill="#3FCBFF"/></svg>