<svg width="64" height="64" fill="none" xmlns="http://www.w3.org/2000/svg"><path d="m14.012 20.5-.23 38.69c0 .675.276 1.144.69 1.3l3.45 1.849L50.189 3.41l-3.513-1.95c-.27-.122-.606-.104-.966.086l-30.087 16.01c-.874.505-1.61 1.793-1.61 2.943Z" fill="#000" stroke="#000"/><path d="M49.39 3.548c.874-.46 1.61.092 1.61 1.197l-.23 38.69c0 1.15-.736 2.438-1.61 2.944l-30.087 16.01c-.874.46-1.61-.093-1.61-1.197l.23-38.69c0-1.15.736-2.438 1.61-2.944L49.39 3.548Z" fill="#fff"/><path d="M51 13.574v-8.83c0-1.104-.736-1.656-1.61-1.196l-30.087 16.01c-.874.506-1.61 1.794-1.61 2.944l-.23 38.69c0 1.104.736 1.656 1.61 1.196l30.087-16.01c.874-.505 1.61-1.794 1.61-2.944V18.76" stroke="#000"/><path d="M34.92 15.158c2.928-1.556 5.307.274 5.307 4.117 0 2.744-1.281 5.9-3.202 8.05l-.87 1.007.915-.274c2.974-.824 5.718.228 7.137 2.744-.054.535-.48 1.805-.985 2.882-1.757 3.75-6.746 6.588-7.798 7.182l-.275.138-.137.091c-.046 0-.092.046-.137.092-.046.045-.138.045-.183.091-2.516 1.235-4.53 1.19-5.764.96-1.373-.274-2.379-.868-2.882-1.372a36.361 36.361 0 0 1 2.196-4.62c.274-.549 1.006-1.738 1.646-2.562.87-1.235 1.922-2.333 3.02-3.293l.914-.824-.869.046c-2.012.046-3.339-1.83-3.339-4.666v-.091c0-1.876.595-3.889 1.601-5.764.96-1.784 2.287-3.202 3.705-3.934Z" fill="#3FCBFF"/><path d="m25.997 50.424 18.156-9.776m-18.156 13.5 9.31-5.12" stroke="#3FCBFF"/></svg>