<svg width="66" height="64" fill="none" xmlns="http://www.w3.org/2000/svg"><path d="M28.363 17.755 4.743 31.384C2.059 32.92.716 35.08.985 37.424c.268 2.341 2.073 4.582 5.086 6.32a24.097 24.097 0 0 0 10.951 2.94c4.027.14 7.75-.638 10.408-2.175l23.613-13.655c2.684-1.53 4.027-3.69 3.765-6.04-.262-2.348-2.08-4.59-5.087-6.327" stroke="#000" stroke-linejoin="round"/><path d="M28.363 20.922 4.742 34.551a7.381 7.381 0 0 0-3.537 3.905c.617 1.94 2.315 3.792 4.865 5.261a24.097 24.097 0 0 0 10.951 2.94c4.026.14 7.75-.638 10.408-2.175l23.613-13.628a7.381 7.381 0 0 0 3.537-3.906c-.611-1.94-2.316-3.791-4.859-5.26" stroke="#000" stroke-linejoin="round"/><path fill-rule="evenodd" clip-rule="evenodd" d="m28.383 18.218 2.684 4.147h10.287l5.872-4.126h4.63v6.039c0 2.08-1.41 4.154-4.16 5.744-5.523 3.187-14.468 3.207-19.957 0-2.751-1.59-4.12-3.684-4.093-5.778v-6.039l4.737.014Z" fill="#000"/><path d="M19.257 18.91H11.3m12.515 8.172-5.65 3.255 5.65-3.255ZM19.184 8l5.61 3.214-5.61-3.214Zm32.92 18.983 5.61 3.24-5.61-3.24ZM38.106 3.449v4.597-4.597Zm18.896 4.482-5.677 3.282 5.677-3.282Zm7.744 10.918h-7.958 7.958Zm-26.78 11.823v4.597-4.596Z" stroke="#00B5F1" stroke-linejoin="round"/><path fill-rule="evenodd" clip-rule="evenodd" d="M27.786 12.555c5.523-3.194 14.46-3.208 19.95-.04 5.489 3.167 5.462 8.334-.06 11.521-5.523 3.188-14.468 3.208-19.957.034-5.49-3.174-5.456-8.328.067-11.515Zm9.334 7.381h-6.04v2.443h10.288l.053-9.918h-4.227l-.074 7.475Z" fill="#00B5F1"/></svg>