<svg width="64" height="64" fill="none" xmlns="http://www.w3.org/2000/svg"><path fill-rule="evenodd" clip-rule="evenodd" d="m21.168 49.687 10.367 10.806 7.744-10.945 20.464-2.218.118-7.788-16.154-.661 2.484-12.05.272-7.649-17.69 13.879L9.138 20.38v7.184l5.257 11.873-13.15.953-.055 7.871 19.978 1.426Z" fill="#3FCBFF"/><path fill-rule="evenodd" clip-rule="evenodd" d="M21.168 41.794 31.535 52.6l7.744-10.945 20.464-2.218-16.036-8.455 2.484-12.05-8.709 3.118-2.177.78-2.177.78-2.177.779-2.178.78-19.221-5.264 4.843 11.633L1.19 40.362l19.978 1.432Z" fill="#fff"/><path fill-rule="evenodd" clip-rule="evenodd" d="m46.076 18.603.452.4-2.431 11.792 15.805 8.334-.122.654-20.31 2.202-7.655 10.818-.527.04-10.276-10.71-19.846-1.424L1 40.072l12.967-8.665L9.234 20.04l.408-.471 19.118 5.235 17.316-6.2Zm-.347.863-16.84 6.03-.206.009-18.54-5.078 4.57 10.976-.128.425-12.36 8.26 18.967 1.36.223.104 10.08 10.506L39 41.453l.244-.144 19.332-2.095-15.028-7.924-.178-.38 2.36-11.444Z" fill="#000"/><path fill-rule="evenodd" clip-rule="evenodd" d="M58.658 19.33c1.261 1.2 1.882 2.414 1.873 3.62-.012 1.357-.827 2.714-2.454 4.033-1.623 1.316-4.008 2.553-7.043 3.67-.66.244-1.352.481-2.071.712l.208.664a52.646 52.646 0 0 0 2.099-.721c3.07-1.13 5.533-2.4 7.238-3.782 1.703-1.38 2.697-2.913 2.712-4.57.011-1.471-.75-2.858-2.09-4.134-1.34-1.275-3.29-2.47-5.74-3.567-4.898-2.195-11.867-4.029-20.16-5.31l-.104.687c8.263 1.277 15.165 3.1 19.986 5.26 2.411 1.08 4.284 2.236 5.546 3.437ZM33.39 34.731h-.002l-3.323.428h-.002c-4.598.54-9.558.911-14.764 1.083l.022.696c5.225-.172 10.204-.544 14.824-1.087h.004l3.334-.43c3.423-.482 6.616-1.062 9.527-1.726l-.151-.68c-2.89.66-6.063 1.236-9.469 1.716Z" fill="#000"/><path d="m27.2 5.873-.318 3.235-2.663 1.864 3.235.318 1.865 2.664.318-3.236L32.3 8.854l-3.235-.318L27.2 5.873Z" fill="#000"/></svg>