<svg width="20" height="27" fill="none" xmlns="http://www.w3.org/2000/svg"><path fill-rule="evenodd" clip-rule="evenodd" d="M10 5.25a4.75 4.75 0 1 0 0 9.5 4.75 4.75 0 0 0 0-9.5ZM6.75 10a3.25 3.25 0 1 1 6.5 0 3.25 3.25 0 0 1-6.5 0Z" fill="#7A7A7A"/><path fill-rule="evenodd" clip-rule="evenodd" d="M20 10c0 5.235-3.145 9.081-9.008 15.855l-.78.9L10 27l-.214-.247-.778-.898C3.144 19.08 0 15.235 0 10 0 4.477 4.477 0 10 0s10 4.477 10 10Zm-1.5 0c0 2.394-.742 4.49-2.324 6.947-1.424 2.212-3.467 4.63-6.176 7.762-2.709-3.132-4.752-5.55-6.176-7.762C2.243 14.49 1.5 12.394 1.5 10a8.5 8.5 0 0 1 17 0Z" fill="#7A7A7A"/></svg>