<svg width="64" height="64" viewBox="0 0 64 64" fill="none" xmlns="http://www.w3.org/2000/svg">
<path d="M22.1379 51.9622L28.7137 59.6392L34.3615 61L26.1655 51.5143" fill="black"/>
<path d="M28.7137 59.6392L28.334 59.9645L28.4392 60.0874L28.5966 60.1253L28.7137 59.6392ZM34.3615 61L34.2444 61.4861C34.4556 61.537 34.6754 61.4457 34.7885 61.2602C34.9015 61.0747 34.8818 60.8375 34.7398 60.6731L34.3615 61ZM21.7582 52.2875L28.334 59.9645L29.0934 59.3139L22.5177 51.6369L21.7582 52.2875ZM28.5966 60.1253L34.2444 61.4861L34.4786 60.5139L28.8308 59.1531L28.5966 60.1253ZM34.7398 60.6731L26.5438 51.1874L25.7872 51.8412L33.9832 61.3269L34.7398 60.6731Z" fill="black"/>
<path d="M13.7581 10.3698C13.6158 10.5255 13.478 10.6856 13.3445 10.8501L13.349 10.8412C13.2778 10.9346 13.2022 11.0236 13.1311 11.117C12.9888 11.3037 12.8509 11.4994 12.7219 11.6995C12.6686 11.7796 12.6108 11.8596 12.5574 11.9441C12.504 12.0331 12.4551 12.1264 12.4018 12.2154C12.3084 12.3755 12.2194 12.5311 12.1349 12.6957C12.0771 12.798 12.0282 12.9047 11.9793 13.0114C11.9037 13.1671 11.8325 13.3272 11.7614 13.4873C11.7125 13.5984 11.668 13.7141 11.6235 13.8297C11.5613 13.9898 11.5034 14.1543 11.4456 14.3189C11.4056 14.4389 11.3656 14.559 11.33 14.6791C11.2811 14.8481 11.2322 15.0171 11.1877 15.1905C11.0679 15.3185 10.8171 17.5796 10.7728 25.6006C10.7285 33.6216 10.7543 41.1661 10.7728 43.9358C10.8111 46.1766 11.9179 50.7398 15.9341 52.0858L16.7332 52.3015C16.4548 52.2434 16.1886 52.1711 15.9341 52.0858L11.9401 51.0076C11.9401 51.0076 11.1343 50.745 10.7385 50.5805C10.5384 50.5004 10.156 50.3047 10.156 50.3047C9.96475 50.2025 9.78242 50.0913 9.60009 49.9668C9.06199 49.5977 8.56836 49.1441 8.1281 48.6104C6.81176 47.0139 6.00684 44.7414 6.00684 42.1488L6.02018 16.9693C6.02462 16.6536 6.03797 16.3378 6.0602 16.0265C6.06465 15.9198 6.08244 15.8175 6.09133 15.7152C6.11357 15.5062 6.1358 15.3017 6.16693 15.0971C6.18472 14.977 6.20696 14.8614 6.22919 14.7413C6.26477 14.559 6.30034 14.3767 6.34037 14.1943C6.3715 14.0743 6.40263 13.9498 6.43376 13.8297C6.47823 13.6562 6.5227 13.4873 6.57606 13.3183C6.61164 13.1982 6.65166 13.0781 6.69169 12.958C6.74505 12.7935 6.80731 12.629 6.86957 12.4689C6.91404 12.3532 6.95851 12.2421 7.00743 12.1264L7.00744 12.1264C7.07859 11.9663 7.14974 11.8062 7.22534 11.6506C7.2787 11.5439 7.32762 11.4371 7.38099 11.3349C7.46548 11.1703 7.55442 11.0102 7.64781 10.8546C7.70118 10.7656 7.7501 10.6722 7.80346 10.5833C7.8168 10.5655 7.8257 10.5433 7.83904 10.521C7.87462 10.4588 7.92353 10.401 7.96356 10.3387C8.09697 10.1386 8.23038 9.94292 8.37269 9.75614C8.44384 9.65831 8.515 9.56936 8.5906 9.48042C8.72401 9.31588 8.86187 9.15578 9.00418 9.00014L9.24432 8.74665C9.39997 8.59545 9.55562 8.4487 9.71571 8.31084C9.79131 8.24413 9.86247 8.17298 9.94251 8.11072C10.1693 7.92839 10.405 7.7505 10.6452 7.59485C10.6585 7.58596 10.6674 7.57707 10.6807 7.56817C10.8141 7.48812 10.9476 7.41697 11.081 7.34137C11.1788 7.28356 11.2811 7.2213 11.3834 7.16793C11.5257 7.09678 11.6724 7.04342 11.8147 6.98116C11.917 6.94113 12.0149 6.88777 12.1171 6.85219C12.2817 6.78993 12.4507 6.74991 12.6152 6.70099C12.7042 6.67431 12.7887 6.64318 12.8776 6.62094C13.1355 6.56313 13.3979 6.51421 13.6603 6.48753L42.4863 3.03658C43.0556 2.97432 43.6159 2.99211 44.1496 3.0855L51.9983 4.44241C51.4715 4.35244 50.9189 4.33601 50.3577 4.39739L18.4187 7.85279C18.1563 7.87947 17.8939 7.92394 17.636 7.9862C17.5604 8.00399 17.4892 8.03512 17.4181 8.05291C17.2357 8.10182 17.0534 8.15074 16.8755 8.21745C16.7733 8.25302 16.6754 8.30194 16.5731 8.34641C16.4308 8.40867 16.2841 8.46204 16.1418 8.53319C16.0395 8.58211 15.9416 8.64882 15.8438 8.70218C15.7104 8.77778 15.5725 8.84894 15.4391 8.93343C15.4258 8.94232 15.4169 8.95122 15.4035 8.96011C15.159 9.12021 14.9233 9.29364 14.6965 9.48042C14.6209 9.54268 14.5453 9.61384 14.4697 9.68054C14.3096 9.8184 14.1495 9.96516 13.9983 10.1164C13.9182 10.1964 13.8382 10.2853 13.7581 10.3698Z" fill="black" stroke="black" stroke-miterlimit="10"/>
<path d="M57.98 38.4132L58.48 38.4136V38.4135L57.98 38.4132ZM57.9934 13.2338L58.4934 13.234V13.2338H57.9934ZM50.3577 4.40185L50.4114 4.89896L50.4117 4.89893L50.3577 4.40185ZM18.4142 7.8528L18.4677 8.34993L18.4679 8.34991L18.4142 7.8528ZM10.7697 18.3346L10.2697 18.3342L10.2697 18.3343L10.7697 18.3346ZM10.7563 43.514L10.2563 43.5138V43.514H10.7563ZM18.392 52.3549L18.3382 51.8578L18.3381 51.8578L18.392 52.3549ZM26.1611 51.5144L26.5394 51.1875L26.368 50.9891L26.1073 51.0173L26.1611 51.5144ZM34.3571 61L33.9787 61.3269C34.0784 61.4423 34.2253 61.5059 34.3777 61.4996C34.53 61.4933 34.6712 61.4178 34.761 61.2946L34.3571 61ZM42.5664 49.7444L42.5126 49.2473L42.2928 49.2711L42.1624 49.4498L42.5664 49.7444ZM50.3355 48.9039L50.3893 49.401L50.3895 49.401L50.3355 48.9039ZM58.48 38.4135L58.4934 13.234L57.4934 13.2335L57.48 38.413L58.48 38.4135ZM58.4934 13.2338C58.4934 7.73771 54.9382 3.40177 50.3038 3.90477L50.4117 4.89893C54.2178 4.48583 57.4934 8.06572 57.4934 13.2338H58.4934ZM50.304 3.90475L18.3605 7.35569L18.4679 8.34991L50.4114 4.89896L50.304 3.90475ZM18.3608 7.35567C16.0803 7.60104 14.054 8.98784 12.6087 10.9697C11.1618 12.9537 10.272 15.5641 10.2697 18.3342L11.2697 18.335C11.2718 15.773 12.0964 13.3693 13.4167 11.5589C14.7386 9.74622 16.5324 8.55816 18.4677 8.34993L18.3608 7.35567ZM10.2697 18.3343L10.2563 43.5138L11.2563 43.5143L11.2697 18.3349L10.2697 18.3343ZM10.2563 43.514C10.2563 49.0093 13.8109 53.355 18.446 52.8519L18.3381 51.8578C14.5325 52.2708 11.2563 48.6829 11.2563 43.514H10.2563ZM18.4458 52.852L26.2149 52.0115L26.1073 51.0173L18.3382 51.8578L18.4458 52.852ZM25.7827 51.8413L33.9787 61.3269L34.7354 60.6731L26.5394 51.1875L25.7827 51.8413ZM34.761 61.2946L42.9704 50.0391L42.1624 49.4498L33.9531 60.7054L34.761 61.2946ZM42.6202 50.2415L50.3893 49.401L50.2817 48.4068L42.5126 49.2473L42.6202 50.2415ZM50.3895 49.401C52.6699 49.1532 54.696 47.7641 56.1411 45.7808C57.5879 43.7951 58.4777 41.1837 58.48 38.4136L57.48 38.4128C57.4779 40.9748 56.6533 43.3797 55.3329 45.1919C54.0109 47.0063 52.2169 48.1966 50.2815 48.4068L50.3895 49.401Z" fill="black"/>
<g style="mix-blend-mode:overlay" opacity="0.7">
<path d="M26.1611 51.5144L18.392 52.3549C14.1717 52.8129 10.7563 48.8461 10.7563 43.514L10.7697 18.3346C10.7741 13.0025 14.1984 8.3064 18.4142 7.8528L50.3577 4.40185C54.578 3.9438 57.9934 7.90172 57.9934 13.2338L57.98 38.4132C57.9756 43.7453 54.5513 48.4459 50.3355 48.9039L42.5664 49.7444" stroke="black" stroke-miterlimit="10"/>
</g>
<path d="M44.8966 24.685C44.8966 20.7671 42.3929 17.8676 39.3021 18.2012C37.1809 18.4324 35.3398 20.1223 34.3836 22.417C33.432 20.3313 31.5909 19.0372 29.4652 19.264C26.3744 19.5976 23.8663 23.0396 23.8618 26.9575C23.8618 31.1333 26.2632 33.9172 28.3578 35.8695C29.7942 37.208 31.1817 38.2042 31.3329 38.3198L34.3747 40.4767L37.421 37.6616C37.5722 37.5149 38.9597 36.2208 40.3961 34.5709C42.4907 32.165 44.8966 28.8653 44.901 24.685H44.8966Z" fill="#3FCBFF"/>
<path d="M26.1656 51.5143L20.042 52.177" stroke="black" stroke-miterlimit="10"/>
</svg>
