<svg width="64" height="64" viewBox="0 0 64 64" fill="none" xmlns="http://www.w3.org/2000/svg">
<g clip-path="url(#clip0_3758_40783)">
<path d="M28.36 13.4365L20.6042 16.4115L20.5811 25.8459L28.3369 22.8824L28.36 13.4365Z" fill="black"/>
<path d="M51.9056 43.6729C51.6973 43.7771 51.5005 43.8813 51.269 43.9508C51.0259 44.0434 50.7712 44.1128 50.505 44.1591V44.1475C50.3892 44.1591 50.285 44.1823 50.1808 44.1938C50.1114 44.2054 50.0303 44.217 49.9493 44.217C49.7873 44.2517 49.6368 44.2633 49.4747 44.2633H49.058C48.9306 44.2633 48.7917 44.2402 48.6528 44.2402H48.6412C48.5023 44.2286 48.375 44.217 48.2361 44.1938C48.0972 44.1707 47.9698 44.1475 47.8309 44.1244C47.7152 44.1012 47.611 44.0665 47.5068 44.0434C46.465 43.7887 45.4579 43.5109 44.4739 43.2331C41.4295 42.3649 38.6165 41.4156 36.0351 40.397H36.0235C32.516 39.0194 29.4253 37.5146 26.6934 35.9402C9.17907 25.8345 6.64395 12.557 6.34298 7.53304V7.44043L6.31982 16.8748V16.9674C6.6208 22.0029 9.16749 35.2804 26.6818 45.3862C29.4137 46.9605 32.5045 48.4653 36.012 49.8429C38.5934 50.8616 41.4063 51.8108 44.4508 52.679C45.4347 52.9568 46.4534 53.223 47.4837 53.4893C47.5878 53.524 47.7036 53.5472 47.8078 53.5703C47.9351 53.5935 48.074 53.6166 48.2129 53.6398C48.3518 53.6629 48.4792 53.6861 48.6181 53.6861H48.6297C48.757 53.7092 48.8959 53.7092 49.0348 53.7092H49.4631C49.6252 53.6976 49.7757 53.6861 49.9262 53.6745C49.9956 53.6629 50.0766 53.6398 50.1577 53.6398C50.2619 53.6282 50.366 53.6166 50.4702 53.5935H50.4818C50.748 53.5472 51.0143 53.4893 51.2574 53.4082C51.6162 53.2809 51.9288 53.142 52.2182 52.9684L52.6465 52.679L59.709 47.5102L59.7321 38.0759L51.9056 43.6845V43.6729Z" fill="#3FCBFF"/>
<path d="M21.6817 3.93457C25.7283 7.57085 28.2247 13.6009 28.3615 13.9087L20.7242 16.8496C21.1231 22.2641 27.8258 27.1771 33.1605 30.2548C36.7512 32.3295 39.5781 33.5149 39.7263 33.5719L47.3066 30.7564L59.7315 37.9378L52.0828 43.3979C51.5129 43.8082 50.7263 44.0818 49.8372 44.2072C48.9481 44.3326 48.0248 44.2756 47.1926 44.059C38.7232 41.916 32.0206 39.1461 26.7087 36.0797C9.48478 26.1284 6.977 13.0538 6.69203 8.0952C6.65783 7.52525 6.9656 6.9553 7.55835 6.51074C8.16249 6.05478 9.00602 5.72421 9.96354 5.59882L21.6817 3.93457Z" fill="white"/>
<path d="M49.68 32.2202L59.5757 37.9397L51.9494 43.3837C51.3812 43.7929 50.5969 44.0657 49.7104 44.1907C48.8239 44.3157 47.9033 44.2589 47.0736 44.0429C38.6291 41.9062 31.9462 39.1444 26.6498 36.0871C9.47657 26.165 6.97616 13.1288 6.69202 8.18478C6.65792 7.61651 6.96479 7.04823 7.5558 6.60498C8.15817 6.15036 8.99921 5.82076 9.95392 5.69574L21.6377 4.03638C25.6724 7.66197 28.1615 13.6743 28.2978 13.9812L20.683 16.9135C21.0807 22.3121 27.7637 27.2106 33.0827 30.2793C36.6628 32.3478 39.4815 33.5299 39.6292 33.5867L46.3847 31.0775" stroke="black" stroke-linejoin="bevel"/>
<path d="M40.5452 14.412C51.1587 8.55076 59.7108 6.27676 61.9488 9.30211C64.8224 13.1826 56.3141 24.4625 42.5023 35.598" stroke="black" stroke-miterlimit="10"/>
<path d="M33.1029 42.5582C18.402 52.5322 5.10608 57.3905 2.22878 53.5071C0.0581941 50.5722 4.3855 43.4156 12.5887 35.2915" stroke="black" stroke-miterlimit="10"/>
<path d="M37.7641 5.51975L37.5935 1.82737L39.8782 4.73297" stroke="black" stroke-linejoin="round"/>
<path d="M40.5812 4.82751L44.2735 4.65697L41.368 6.94167" stroke="black" stroke-linejoin="round"/>
<path d="M41.2243 7.92856L41.3948 11.6209L39.1101 8.71535" stroke="black" stroke-linejoin="round"/>
<path d="M38.3062 8.47813L34.6138 8.64868L37.5194 6.36398" stroke="black" stroke-linejoin="round"/>
</g>
<defs>
<clipPath id="clip0_3758_40783">
<rect width="64" height="64" fill="white"/>
</clipPath>
</defs>
</svg>
