<svg width="64" height="64" viewBox="0 0 64 64" fill="none" xmlns="http://www.w3.org/2000/svg">
<g clip-path="url(#clip0_3758_40799)">
<path d="M37.0204 24.0992C31.7456 12.9842 30.744 2.39642 34.7817 0.477692C38.8194 -1.44104 46.3803 6.0305 51.6551 17.1455C56.9299 28.2605 57.9315 38.8483 53.8938 40.7671C49.8561 42.6858 42.2951 35.2143 37.0204 24.0992Z" fill="#3FCBFF"/>
<path fill-rule="evenodd" clip-rule="evenodd" d="M34.8586 18.0927C35.9457 17.4522 37.2287 17.1201 38.5812 17.2076C42.169 17.4397 44.8947 20.5447 44.6625 24.1352C44.4947 26.7289 42.8273 28.873 40.5585 29.7726C39.4471 28.1539 38.372 26.3271 37.3976 24.3476C36.3429 22.2037 35.4909 20.0899 34.8586 18.0927Z" fill="black"/>
<path d="M30.1666 6.58664C27.3943 12.4863 25.6926 14.0365 17.3505 19.2989C11.2067 23.6883 10.4728 28.085 12.6272 33.8342C14.7843 39.5907 20.5546 43.2298 25.7403 41.8625L27.2861 41.5577C34.611 39.5628 40.3396 39.688 44.2244 40.3032C46.1683 40.611 47.6541 41.0421 48.6504 41.3943" stroke="black" stroke-miterlimit="10"/>
<path d="M12.5339 47.7104C11.4394 46.9765 8.24292 46.4198 5.69328 43.1237C3.14364 39.8276 3.39806 35.7675 3.89014 33.9819C5.04903 29.7766 8.63925 26.9233 12.086 25.0934" stroke="black" stroke-miterlimit="10"/>
<path d="M20.6217 61.3101C17.5135 59.23 13.0681 53.0463 12.6501 47.654C13.0703 45.3654 15.1789 41.3512 20.2516 43.603C20.8367 45.8509 23.5952 55.4101 27.355 55.0809" stroke="black" stroke-linecap="round" stroke-linejoin="round"/>
<path d="M20.4941 43.5279C20.7258 43.261 21.6625 42.7288 22.8963 42.163" stroke="black"/>
<ellipse cx="25.0234" cy="58.9517" rx="1.29931" ry="4.82808" transform="rotate(43.9332 25.0234 58.9517)" fill="black" stroke="black"/>
<path d="M49.4802 11.0021L52.3015 7.353" stroke="black"/>
<path d="M54.778 21.1323L59.8135 20.6335" stroke="black"/>
<path d="M52.6644 15.8077L58.4665 12.4126" stroke="black"/>
</g>
<defs>
<clipPath id="clip0_3758_40799">
<rect width="64" height="64" fill="white"/>
</clipPath>
</defs>
</svg>
