<svg width="64" height="64" viewBox="0 0 64 64" fill="none" xmlns="http://www.w3.org/2000/svg">
<mask id="mask0_99_2677" style="mask-type:alpha" maskUnits="userSpaceOnUse" x="0" y="0" width="64" height="64">
<rect width="64" height="64" fill="#C4C4C4"/>
</mask>
<g mask="url(#mask0_99_2677)">
</g>
<g clip-path="url(#clip0_99_2677)">
<path d="M42.5119 12.912C42.6959 12.912 43.9839 12.912 44.1119 12.96C57.9119 17.496 60.4719 31.2 56.0639 44.04C51.8159 56.408 40.9119 64.512 28.6399 59.896C29.9567 60.7951 31.3881 61.5135 32.8959 62.032C44.0399 65.864 56.7999 58.176 61.3359 44.872C65.8719 31.568 60.5839 17.672 49.4479 13.864C47.2198 13.0988 44.8638 12.7754 42.5119 12.912Z" fill="#00B5EF"/>
<path d="M61.1383 44.5868C65.64 31.2224 60.2213 17.3339 49.0353 13.566C37.8494 9.79807 25.132 17.5776 20.6303 30.942C16.1286 44.3064 21.5473 58.1949 32.7332 61.9628C43.9192 65.7307 56.6366 57.9512 61.1383 44.5868Z" stroke="black" stroke-width="1.00245" stroke-linejoin="round"/>
<path d="M49.875 41.5258C52.7647 33.1143 50.0093 24.5441 43.7206 22.3836C37.4318 20.2231 29.9912 25.2905 27.1015 33.702C24.2117 42.1134 26.9672 50.6837 33.2559 52.8442C39.5447 55.0047 46.9853 49.9372 49.875 41.5258Z" fill="#00B5EF"/>
<path d="M43.55 38.5886C45.0243 34.2972 43.618 29.9246 40.4088 28.8221C37.1997 27.7197 33.403 30.3048 31.9287 34.5962C30.4544 38.8875 31.8608 43.2601 35.0699 44.3626C38.2791 45.4651 42.0757 42.88 43.55 38.5886Z" fill="white"/>
<path d="M38.7279 36.392L33.2319 31.616" stroke="black" stroke-linecap="round" stroke-linejoin="round"/>
<path d="M26.9041 29.752C27.1121 30.0666 27.3121 30.3786 27.5041 30.688C27.9667 31.5399 28.6315 32.2651 29.4401 32.8C29.7825 33.0167 30.1669 33.1584 30.5681 33.216C30.9947 33.2819 31.4301 33.2629 31.8494 33.1602C32.2687 33.0574 32.6636 32.873 33.0114 32.6173C33.3592 32.3616 33.6532 32.0398 33.8764 31.6703C34.0996 31.3008 34.2476 30.8908 34.3121 30.464C34.4337 29.5194 34.1779 28.565 33.6001 27.808C32.9569 27.3087 32.2747 26.862 31.5601 26.472C31.0481 26.192 30.6481 25.984 30.3121 25.816" fill="black"/>
<path d="M26.9041 29.752C27.1121 30.0666 27.3121 30.3786 27.5041 30.688C27.9667 31.5399 28.6315 32.2651 29.4401 32.8C29.7825 33.0167 30.1669 33.1584 30.5681 33.216C30.9947 33.2819 31.4301 33.2629 31.8494 33.1602C32.2687 33.0574 32.6636 32.873 33.0114 32.6173C33.3592 32.3616 33.6532 32.0398 33.8764 31.6703C34.0996 31.3008 34.2476 30.8908 34.3121 30.464C34.4337 29.5194 34.1779 28.565 33.6001 27.808C32.9569 27.3087 32.2747 26.862 31.5601 26.472C31.0481 26.192 30.6481 25.984 30.3121 25.816" stroke="black" stroke-linecap="round" stroke-linejoin="round"/>
<path d="M28.2561 21.896C27.9809 21.661 27.6924 21.442 27.3921 21.24C25.2481 19.768 22.8721 18.584 20.6321 17.24L9.2801 10.648C8.6756 10.4027 8.10975 10.0713 7.6001 9.664L12.6001 15.832L20.4961 25.6C21.8001 27.2 22.9841 29.384 25.2241 29.728C25.7862 29.8144 26.3598 29.7892 26.9121 29.6538C27.4645 29.5184 27.9847 29.2755 28.4431 28.9389C28.9015 28.6024 29.2891 28.1788 29.5837 27.6923C29.8783 27.2059 30.0742 26.6662 30.1601 26.104C30.4001 24.352 29.4881 22.952 28.2561 21.896Z" fill="white" stroke="black" stroke-linecap="round" stroke-linejoin="round"/>
<path d="M9.27994 10.648C9.27994 10.648 3.33594 4.14398 9.48794 0.855977C15.6399 -2.43202 15.7279 14.328 15.7279 14.328" stroke="black" stroke-linejoin="round"/>
<path d="M8.51988 10.92C8.51988 10.92 0.47188 8.18397 0.67188 14.904C0.87188 21.624 13.8479 17.248 13.8479 17.248" stroke="black" stroke-linejoin="round"/>
<path d="M3.3439 10.48C3.3439 10.48 -1.4561 8.02401 1.3759 6.27201C4.2079 4.52001 8.1519 9.12001 8.1519 9.12001" stroke="black" stroke-linejoin="round"/>
</g>
<defs>
<clipPath id="clip0_99_2677">
<rect width="64" height="64" fill="white"/>
</clipPath>
</defs>
</svg>
