<svg width="64" height="64" viewBox="0 0 64 64" fill="none" xmlns="http://www.w3.org/2000/svg">
<path d="M14.0122 20.4994L13.7822 59.1891C13.7822 59.8649 14.058 60.3339 14.4723 60.4905L17.9226 62.3388L50.1878 3.41048L46.6754 1.45915C46.4044 1.33833 46.0685 1.35648 45.7093 1.54551L15.6224 17.5551C14.7483 18.0611 14.0122 19.3492 14.0122 20.4994Z" fill="black" stroke="black"/>
<path d="M49.39 3.54844C50.2641 3.0884 51.0002 3.64045 51.0002 4.74456L50.7701 43.4343C50.7701 44.5844 50.0341 45.8726 49.16 46.3786L19.073 62.3882C18.199 62.8482 17.4629 62.2962 17.4629 61.1921L17.6929 22.5023C17.6929 21.3522 18.429 20.0641 19.3031 19.558L49.39 3.54844Z" fill="white"/>
<path d="M51.0002 13.5736V4.74456C51.0002 3.64045 50.2641 3.0884 49.39 3.54844L19.3031 19.558C18.429 20.064 17.6929 21.3522 17.6929 22.5023L17.4629 61.1921C17.4629 62.2962 18.199 62.8482 19.073 62.3882L49.16 46.3786C50.0341 45.8726 50.7701 44.5844 50.7701 43.4343V18.7598" stroke="black"/>
<path d="M34.9204 15.1576C37.8481 13.6023 40.2268 15.4321 40.2268 19.2747C40.2268 22.0194 38.946 25.1758 37.0247 27.3258L36.1555 28.3322L37.0704 28.0577C40.0438 27.2343 42.7885 28.2864 44.2066 30.8024C44.153 31.3367 43.7266 32.6074 43.2219 33.6843C41.4651 37.4333 36.4757 40.2716 35.4236 40.8663C35.3321 40.912 35.2406 40.9578 35.1491 41.0035L35.0119 41.095C34.9662 41.095 34.9204 41.1408 34.8747 41.1865C34.8289 41.2323 34.7374 41.2323 34.6917 41.278C32.1757 42.5131 30.1629 42.4674 28.9278 42.2386C27.5555 41.9642 26.5491 41.3695 26.0459 40.8663C26.6406 39.311 27.5555 37.4354 28.2417 36.2461C28.5161 35.6971 29.248 34.5077 29.8885 33.6843C30.7576 32.4492 31.8098 31.3513 32.9076 30.3907L33.8225 29.5673L32.9534 29.613C30.9406 29.6588 29.614 27.7832 29.614 24.9471C29.614 24.9013 29.614 24.9013 29.614 24.8556C29.614 22.98 30.2087 20.9672 31.2151 19.0917C32.1757 17.3077 33.5023 15.8896 34.9204 15.1576Z" fill="#3FCBFF"/>
<path d="M25.9971 50.4241L44.1528 40.6479M25.9971 54.1484L35.3077 49.0275" stroke="#3FCBFF"/>
</svg>
