<svg width="64" height="64" viewBox="0 0 64 64" fill="none" xmlns="http://www.w3.org/2000/svg">
<path fill-rule="evenodd" clip-rule="evenodd" d="M63.4048 24.6446C63.712 29.5509 60.6552 34.519 54.1882 38.2682C41.8994 45.4118 21.9301 45.4581 9.64133 38.3608C3.20507 34.627 0.194452 29.6589 0.563116 24.7371C0.563116 24.3823 0.563116 24.1663 0.563116 24.1663V37.7591C0.563116 42.3878 3.55843 47.1398 9.70283 50.7039C21.9916 57.8012 41.9609 57.7549 54.2497 50.6268C60.3941 47.0627 63.4663 42.4032 63.4663 37.7591V24.1663C63.4663 24.1663 63.4509 24.336 63.4048 24.6446Z" fill="#3FCBFF"/>
<path d="M4.48691 17.6014C2.41808 20.0136 1.26069 22.7315 1.27617 25.6017C1.32919 35.4333 15.1241 43.3287 32.088 43.2366C49.0519 43.1445 62.7608 35.0998 62.7078 25.2682C62.6548 15.4366 48.8599 7.54114 31.896 7.63324C24.0683 7.67573 16.9336 9.41151 11.5243 12.2348C10.7647 12.6313 10.0391 13.0492 9.35043 13.4868" stroke="black" stroke-miterlimit="10"/>
<path fill-rule="evenodd" clip-rule="evenodd" d="M34.6278 29.9604L18.0319 21.8184L21.7912 20.2544L38.3719 28.3657L34.6278 29.9604Z" fill="#3FCBFF"/>
<path fill-rule="evenodd" clip-rule="evenodd" d="M41.1681 33.165L24.5721 25.0384L28.3315 23.459L44.9121 31.5703L41.1681 33.165Z" fill="#3FCBFF"/>
<path fill-rule="evenodd" clip-rule="evenodd" d="M26.0393 27.7982L23.3497 26.4795L25.7031 25.5595L28.3927 26.8628L26.0393 27.7982Z" fill="#3FCBFF"/>
<path fill-rule="evenodd" clip-rule="evenodd" d="M31.5105 30.4661L28.8209 29.1475L31.1743 28.2275L33.8486 29.5308L31.5105 30.4661Z" fill="#3FCBFF"/>
<path fill-rule="evenodd" clip-rule="evenodd" d="M39.1359 27.3229L36.4463 26.0042L41.8866 23.8269L44.5609 25.1302L39.1359 27.3229Z" fill="#3FCBFF"/>
<path fill-rule="evenodd" clip-rule="evenodd" d="M32.5341 17.3103C30.3276 17.3643 28.1404 17.7361 26.0393 18.4143L23.2275 19.5489L25.9171 20.8676L28.2704 19.917C28.8003 19.734 29.3414 19.5854 29.8904 19.4723C31.2063 19.2319 32.5645 19.4312 33.7567 20.0396C34.6125 20.4996 35.1166 21.021 34.3831 21.7416C33.9887 22.0249 33.5632 22.2615 33.1148 22.447L30.9753 23.3056L33.6496 24.6243L36.0795 23.6583C36.0795 23.6583 40.1597 22.125 39.6095 20.331C38.9218 18.2303 34.4901 17.3103 32.5341 17.3103Z" fill="#3FCBFF"/>
</svg>
