<svg width="66" height="64" viewBox="0 0 66 64" fill="none" xmlns="http://www.w3.org/2000/svg">
<path d="M28.3628 17.7554L4.74263 31.3839C2.05853 32.9206 0.71647 35.0813 0.98488 37.4231C1.25329 39.765 3.05836 42.0063 6.07127 43.7442C9.4359 45.581 13.1902 46.5886 17.0224 46.6833C21.0486 46.8242 24.7728 46.0458 27.43 44.5092L51.0434 30.8538C53.7275 29.3239 55.0696 27.1632 54.8079 24.8146C54.5462 22.466 52.7277 20.2247 49.7215 18.4868" stroke="black" stroke-linejoin="round"/>
<path d="M28.3625 20.9224L4.74235 34.5509C3.12331 35.3734 1.86428 36.7638 1.20605 38.4563C1.8234 40.3955 3.52109 42.2476 6.07099 43.7171C9.43563 45.5539 13.1899 46.5615 17.0221 46.6562C21.0483 46.7971 24.7725 46.0187 27.4297 44.4821L51.0432 30.8535C52.6622 30.0311 53.9212 28.6407 54.5795 26.9482C53.9688 25.0089 52.2644 23.1569 49.7212 21.6873" stroke="black" stroke-linejoin="round"/>
<path fill-rule="evenodd" clip-rule="evenodd" d="M28.3833 18.2185L31.0674 22.3654H41.3543L47.2257 18.2386H51.8558V24.2779C51.8558 26.358 50.4467 28.4315 47.6955 30.0218C42.1729 33.2092 33.2281 33.2294 27.7391 30.0218C24.9879 28.4315 23.6191 26.3379 23.6459 24.2443V18.2051L28.3833 18.2185Z" fill="black"/>
<path d="M19.2572 18.9094H11.2988M23.8135 27.0825L18.1634 30.337L23.8135 27.0825ZM19.1834 7.99853L24.7932 11.2127L19.1834 7.99853ZM52.1039 26.9819L57.7137 30.2229L52.1039 26.9819ZM38.1063 3.44897V8.0455V3.44897ZM57.0024 7.93143L51.3255 11.2127L57.0024 7.93143ZM64.7461 18.849H56.7877H64.7461ZM37.9654 30.6725V35.269V30.6725Z" stroke="#00B5F1" stroke-linejoin="round"/>
<path fill-rule="evenodd" clip-rule="evenodd" d="M27.786 12.5548C33.3086 9.36076 42.2466 9.34734 47.7356 12.5146C53.2246 15.6818 53.1978 20.8487 47.6752 24.0361C42.1527 27.2235 33.2079 27.2436 27.7189 24.0697C22.2299 20.8957 22.2635 15.7422 27.786 12.5548ZM37.12 19.9361H31.0808V22.3787H41.3676L41.4213 12.4609H37.1938L37.12 19.9361Z" fill="#00B5F1"/>
</svg>
