<svg width="64" height="64" viewBox="0 0 64 64" fill="none" xmlns="http://www.w3.org/2000/svg">
<path fill-rule="evenodd" clip-rule="evenodd" d="M21.1681 49.6867L31.5352 60.4925L39.2794 49.5476L59.7431 47.3295L59.8611 39.5415L43.7066 38.8809L46.1908 26.8304L46.4633 19.1822L28.7734 33.0608L9.13767 20.3796V27.564L14.3954 39.4372L1.24558 40.3898L1.19006 48.2612L21.1681 49.6867Z" fill="#3FCBFF"/>
<path fill-rule="evenodd" clip-rule="evenodd" d="M21.1681 41.7945L31.5352 52.6003L39.2794 41.6554L59.7431 39.4372L43.7066 30.9817L46.1908 18.9312L37.4821 22.0499L35.305 22.8295L33.1278 23.6092L30.9506 24.3889L28.7734 25.1685L9.55181 19.9047L14.3954 31.538L1.19006 40.362L21.1681 41.7945Z" fill="white"/>
<path fill-rule="evenodd" clip-rule="evenodd" d="M46.0757 18.6031L46.528 19.0022L44.0969 30.7949L59.9024 39.1286L59.7798 39.7833L39.4697 41.9848L31.8154 52.8027L31.2879 52.8425L21.0123 42.1322L1.16562 40.7092L1 40.0717L13.967 31.4068L9.23424 20.0397L9.64184 19.5687L28.7597 24.8041L46.0757 18.6031ZM45.7287 19.466L28.8884 25.4966L28.6833 25.5045L10.143 20.4272L14.7128 31.403L14.5853 31.8283L2.22559 40.0873L21.1924 41.4472L21.4153 41.5522L31.4951 52.0584L38.9991 41.4529L39.2426 41.3093L58.5747 39.2138L43.5472 31.2903L43.3693 30.9107L45.7287 19.466Z" fill="black"/>
<path fill-rule="evenodd" clip-rule="evenodd" d="M58.6576 19.3291C59.9194 20.5299 60.5403 21.7439 60.5308 22.9491C60.5187 24.3073 59.7038 25.6644 58.0772 26.983C56.454 28.2988 54.0689 29.5363 51.034 30.6536C50.3733 30.8969 49.6824 31.1342 48.9628 31.3653L49.1713 32.0288C49.8995 31.795 50.5995 31.5546 51.2699 31.3077C54.3393 30.1776 56.8026 28.9087 58.5083 27.526C60.2105 26.1461 61.2051 24.6126 61.2197 22.9551C61.2313 21.4849 60.4702 20.0978 59.1299 18.8223C57.7893 17.5467 55.8393 16.3517 53.3909 15.2549C48.4918 13.0602 41.5235 11.226 33.2303 9.9441L33.1261 10.6323C41.3891 11.9095 48.2907 13.7316 53.1116 15.8913C55.5233 16.9717 57.3958 18.1284 58.6576 19.3291ZM33.39 34.7318C33.3894 34.7319 33.3888 34.732 33.3882 34.7321L30.0654 35.1605C30.0648 35.1606 30.0642 35.1607 30.0635 35.1608C25.4647 35.7008 20.5054 36.0713 15.2988 36.2431L15.3213 36.9389C20.5463 36.7665 25.5254 36.3946 30.145 35.852L30.1488 35.8516L33.4833 35.4216C36.9061 34.9396 40.0993 34.3599 43.0104 33.6956L42.8587 33.0165C39.9693 33.6759 36.7958 34.2521 33.39 34.7318Z" fill="black"/>
<path d="M27.2002 5.8726L26.882 9.10784L24.219 10.9723L27.4542 11.2904L29.3186 13.9535L29.6368 10.7182L32.2998 8.8538L29.0646 8.53566L27.2002 5.8726Z" fill="black"/>
</svg>
