<svg xmlns="http://www.w3.org/2000/svg" xml:space="preserve" viewBox="0 0 792 792"><path d="M0 0h792v792H0z" fill="#fff"/><g fill="#000"><path d="M312 48h24.72v24.72H312zm48 0h24.72v24.72H360z"/><path d="M384 48h24.72v24.72H384z"/><path d="M408 48h24.72v24.72H408zm48 0h24.72v24.72H456z"/><path d="M480 48h24.72v24.72H480z"/><path d="M504 48h24.72v24.72H504z"/><path d="M528 48h24.72v24.72H528zM288 72h24.72v24.72H288zm48 0h24.72v24.72H336z"/><path d="M360 72h24.72v24.72H360z"/><path d="M384 72h24.72v24.72H384z"/><path d="M408 72h24.72v24.72H408z"/><path d="M432 72h24.72v24.72H432z"/><path d="M456 72h24.72v24.72H456zm72 0h24.72v24.72H528zM240 96h24.72v24.72H240z"/><path d="M264 96h24.72v24.72H264z"/><path d="M288 96h24.72v24.72H288z"/><path d="M312 96h24.72v24.72H312z"/><path d="M336 96h24.72v24.72H336z"/><path d="M360 96h24.72v24.72H360zm48 0h24.72v24.72H408zm72 0h24.72v24.72H480zm-240 24h24.72v24.72H240z"/><path d="M264 120h24.72v24.72H264z"/><path d="M288 120h24.72v24.72H288z"/><path d="M312 120h24.72v24.72H312z"/><path d="M336 120h24.72v24.72H336zm48 0h24.72v24.72H384z"/><path d="M408 120h24.72v24.72H408zm48 0h24.72v24.72H456zm48 0h24.72v24.72H504zm-264 24h24.72v24.72H240zm48 0h24.72v24.72H288z"/><path d="M408 144h24.72v24.72H408z"/><path d="M432 144h24.72v24.72H432zm72 0h24.72v24.72H504z"/><path d="M528 144h24.72v24.72H528zm-288 24h24.72v24.72H240z"/><path d="M264 168h24.72v24.72H264z"/><path d="M288 168h24.72v24.72H288z"/><path d="M312 168h24.72v24.72H312z"/><path d="M336 168h24.72v24.72H336zm192 0h24.72v24.72H528zm-288 24h24.72v24.72H240zm48 0h24.72v24.72H288z"/><path d="M336 192h24.72v24.72H336zm48 0h24.72v24.72H384zm48 0h24.72v24.72H432zm48 0h24.72v24.72H480zm48 0h24.72v24.72H528zm-288 24h24.72v24.72H240zm48 0h24.72v24.72H288z"/><path d="M336 216h24.72v24.72H336zm48 0h24.72v24.72H384zm48 0h24.72v24.72H432zm48 0h24.72v24.72H480zm48 0h24.72v24.72H528zM48 240h24.72v24.72H48zm48 0h24.72v24.72H96z"/><path d="M120 240h24.72v24.72H120z"/><path d="M144 240h24.72v24.72H144z"/><path d="M168 240h24.72v24.72H168z"/><path d="M192 240h24.72v24.72H192zm96 0h24.72v24.72H288z"/><path d="M312 240h24.72v24.72H312zm120 0h24.72v24.72H432z"/><path d="M456 240h24.72v24.72H456zm48 0h24.72v24.72H504zm72 0h24.72v24.72H576z"/><path d="M600 240h24.72v24.72H600z"/><path d="M624 240h24.72v24.72H624z"/><path d="M648 240h24.72v24.72H648z"/><path d="M672 240h24.72v24.72H672zM48 264h24.72v24.72H48zm48 0h24.72v24.72H96zm120 0h24.72v24.72H216zm48 0h24.72v24.72H264zm96 0h24.72v24.72H360z"/><path d="M384 264h24.72v24.72H384z"/><path d="M408 264h24.72v24.72H408zm72 0h24.72v24.72H480z"/><path d="M504 264h24.72v24.72H504zm48 0h24.72v24.72H552z"/><path d="M576 264h24.72v24.72H576zm48 0h24.72v24.72H624zm96 0h24.72v24.72H720zM48 288h24.72v24.72H48zm48 0h24.72v24.72H96zm72 0h24.72v24.72H168z"/><path d="M192 288h24.72v24.72H192z"/><path d="M216 288h24.72v24.72H216zm120 0h24.72v24.72H336z"/><path d="M360 288h24.72v24.72H360z"/><path d="M384 288h24.72v24.72H384z"/><path d="M408 288h24.72v24.72H408z"/><path d="M432 288h24.72v24.72H432zm96 0h24.72v24.72H528zm48 0h24.72v24.72H576zm-288 24h24.72v24.72H288z"/><path d="M312 312h24.72v24.72H312z"/><path d="M336 312h24.72v24.72H336z"/><path d="M360 312h24.72v24.72H360zm48 0h24.72v24.72H408zm120 0h24.72v24.72H528z"/><path d="M552 312h24.72v24.72H552z"/><path d="M576 312h24.72v24.72H576zm48 0h24.72v24.72H624zm72 0h24.72v24.72H696zM48 336h24.72v24.72H48z"/><path d="M72 336h24.72v24.72H72z"/><path d="M96 336h24.72v24.72H96z"/><path d="M120 336h24.72v24.72H120z"/><path d="M144 336h24.72v24.72H144zm48 0h24.72v24.72H192zm72 0h24.72v24.72H264zm48 0h24.72v24.72H312zm72 0h24.72v24.72H384z"/><path d="M408 336h24.72v24.72H408zm48 0h24.72v24.72H456zm144 0h24.72v24.72H600zm48 0h24.72v24.72H648z"/><path d="M672 336h24.72v24.72H672zM48 360h24.72v24.72H48z"/><path d="M72 360h24.72v24.72H72z"/><path d="M96 360h24.72v24.72H96z"/><path d="M120 360h24.72v24.72H120zm48 0h24.72v24.72H168zm96 0h24.72v24.72H264zm72 0h24.72v24.72H336zm72 0h24.72v24.72H408z"/><path d="M432 360h24.72v24.72H432zm72 0h24.72v24.72H504z"/><path d="M528 360h24.72v24.72H528zm48 0h24.72v24.72H576zm48 0h24.72v24.72H624zm48 0h24.72v24.72H672zm48 0h24.72v24.72H720zM72 384h24.72v24.72H72zm48 0h24.72v24.72H120zm48 0h24.72v24.72H168z"/><path d="M192 384h24.72v24.72H192zm48 0h24.72v24.72H240zm216 0h24.72v24.72H456z"/><path d="M480 384h24.72v24.72H480zm48 0h24.72v24.72H528z"/><path d="M552 384h24.72v24.72H552zm48 0h24.72v24.72H600z"/><path d="M624 384h24.72v24.72H624zm48 0h24.72v24.72H672zM48 408h24.72v24.72H48zm48 0h24.72v24.72H96z"/><path d="M120 408h24.72v24.72H120z"/><path d="M144 408h24.72v24.72H144z"/><path d="M168 408h24.72v24.72H168zm48 0h24.72v24.72H216z"/><path d="M240 408h24.72v24.72H240zm72 0h24.72v24.72H312z"/><path d="M336 408h24.72v24.72H336zm48 0h24.72v24.72H384zm48 0h24.72v24.72H432zm48 0h24.72v24.72H480zm48 0h24.72v24.72H528z"/><path d="M552 408h24.72v24.72H552z"/><path d="M576 408h24.72v24.72H576z"/><path d="M600 408h24.72v24.72H600z"/><path d="M624 408h24.72v24.72H624zm72 0h24.72v24.72H696zM72 432h24.72v24.72H72z"/><path d="M96 432h24.72v24.72H96zm48 0h24.72v24.72H144z"/><path d="M168 432h24.72v24.72H168z"/><path d="M192 432h24.72v24.72H192z"/><path d="M216 432h24.72v24.72H216z"/><path d="M240 432h24.72v24.72H240zm48 0h24.72v24.72H288z"/><path d="M312 432h24.72v24.72H312z"/><path d="M336 432h24.72v24.72H336zm120 0h24.72v24.72H456zm48 0h24.72v24.72H504zm168 0h24.72v24.72H672zM48 456h24.72v24.72H48z"/><path d="M72 456h24.72v24.72H72zm72 0h24.72v24.72H144zm120 0h24.72v24.72H264z"/><path d="M288 456h24.72v24.72H288zm48 0h24.72v24.72H336z"/><path d="M360 456h24.72v24.72H360z"/><path d="M384 456h24.72v24.72H384z"/><path d="M408 456h24.72v24.72H408zm48 0h24.72v24.72H456z"/><path d="M480 456h24.72v24.72H480z"/><path d="M504 456h24.72v24.72H504z"/><path d="M528 456h24.72v24.72H528zm48 0h24.72v24.72H576z"/><path d="M600 456h24.72v24.72H600z"/><path d="M624 456h24.72v24.72H624z"/><path d="M648 456h24.72v24.72H648z"/><path d="M672 456h24.72v24.72H672zm48 0h24.72v24.72H720zM48 480h24.72v24.72H48zm120 0h24.72v24.72H168z"/><path d="M192 480h24.72v24.72H192zm72 0h24.72v24.72H264zm96 0h24.72v24.72H360z"/><path d="M384 480h24.72v24.72H384z"/><path d="M408 480h24.72v24.72H408zm48 0h24.72v24.72H456zm72 0h24.72v24.72H528zm96 0h24.72v24.72H624z"/><path d="M648 480h24.72v24.72H648z"/><path d="M672 480h24.72v24.72H672zM48 504h24.72v24.72H48zm72 0h24.72v24.72H120z"/><path d="M144 504h24.72v24.72H144z"/><path d="M168 504h24.72v24.72H168zm72 0h24.72v24.72H240zm120 0h24.72v24.72H360zm120 0h24.72v24.72H480z"/><path d="M504 504h24.72v24.72H504z"/><path d="M528 504h24.72v24.72H528zm72 0h24.72v24.72H600zm96 0h24.72v24.72H696zM48 528h24.72v24.72H48zm72 0h24.72v24.72H120zm48 0h24.72v24.72H168z"/><path d="M192 528h24.72v24.72H192z"/><path d="M216 528h24.72v24.72H216z"/><path d="M240 528h24.72v24.72H240zm48 0h24.72v24.72H288zm96 0h24.72v24.72H384z"/><path d="M408 528h24.72v24.72H408z"/><path d="M432 528h24.72v24.72H432z"/><path d="M456 528h24.72v24.72H456zm48 0h24.72v24.72H504z"/><path d="M528 528h24.72v24.72H528z"/><path d="M552 528h24.72v24.72H552z"/><path d="M576 528h24.72v24.72H576z"/><path d="M600 528h24.72v24.72H600z"/><path d="M624 528h24.72v24.72H624zm48 0h24.72v24.72H672z"/><path d="M696 528h24.72v24.72H696z"/><path d="M720 528h24.72v24.72H720zm-480 24h24.72v24.72H240z"/><path d="M264 552h24.72v24.72H264z"/><path d="M288 552h24.72v24.72H288z"/><path d="M312 552h24.72v24.72H312z"/><path d="M336 552h24.72v24.72H336zm96 0h24.72v24.72H432zm48 0h24.72v24.72H480zm48 0h24.72v24.72H528zm96 0h24.72v24.72H624z"/><path d="M648 552h24.72v24.72H648z"/><path d="M672 552h24.72v24.72H672z"/><path d="M696 552h24.72v24.72H696z"/><path d="M720 552h24.72v24.72H720zm-456 24h24.72v24.72H264z"/><path d="M288 576h24.72v24.72H288z"/><path d="M312 576h24.72v24.72H312zm96 0h24.72v24.72H408z"/><path d="M432 576h24.72v24.72H432zm72 0h24.72v24.72H504z"/><path d="M528 576h24.72v24.72H528zm48 0h24.72v24.72H576zm48 0h24.72v24.72H624z"/><path d="M648 576h24.72v24.72H648z"/><path d="M672 576h24.72v24.72H672zm-432 24h24.72v24.72H240zm48 0h24.72v24.72H288z"/><path d="M312 600h24.72v24.72H312z"/><path d="M336 600h24.72v24.72H336zm48 0h24.72v24.72H384z"/><path d="M408 600h24.72v24.72H408zm96 0h24.72v24.72H504z"/><path d="M528 600h24.72v24.72H528zm96 0h24.72v24.72H624z"/><path d="M648 600h24.72v24.72H648zm48 0h24.72v24.72H696zm-456 24h24.72v24.72H240z"/><path d="M264 624h24.72v24.72H264zm72 0h24.72v24.72H336zm72 0h24.72v24.72H408z"/><path d="M432 624h24.72v24.72H432z"/><path d="M456 624h24.72v24.72H456zm72 0h24.72v24.72H528z"/><path d="M552 624h24.72v24.72H552z"/><path d="M576 624h24.72v24.72H576z"/><path d="M600 624h24.72v24.72H600z"/><path d="M624 624h24.72v24.72H624z"/><path d="M648 624h24.72v24.72H648z"/><path d="M672 624h24.72v24.72H672z"/><path d="M696 624h24.72v24.72H696zm-456 24h24.72v24.72H240zm48 0h24.72v24.72H288z"/><path d="M312 648h24.72v24.72H312z"/><path d="M336 648h24.72v24.72H336zm48 0h24.72v24.72H384zm48 0h24.72v24.72H432zm120 0h24.72v24.72H552zm96 0h24.72v24.72H648zm48 0h24.72v24.72H696z"/><path d="M720 648h24.72v24.72H720zm-480 24h24.72v24.72H240zm48 0h24.72v24.72H288zm72 0h24.72v24.72H360zm48 0h24.72v24.72H408z"/><path d="M432 672h24.72v24.72H432zm96 0h24.72v24.72H528z"/><path d="M552 672h24.72v24.72H552z"/><path d="M576 672h24.72v24.72H576z"/><path d="M600 672h24.72v24.72H600z"/><path d="M624 672h24.72v24.72H624zm72 0h24.72v24.72H696zm-360 24h24.72v24.72H336zm48 0h24.72v24.72H384zm48 0h24.72v24.72H432zm48 0h24.72v24.72H480zm48 0h24.72v24.72H528zm48 0h24.72v24.72H576z"/><path d="M600 696h24.72v24.72H600z"/><path d="M624 696h24.72v24.72H624z"/><path d="M648 696h24.72v24.72H648zm48 0h24.72v24.72H696zm-456 24h24.72v24.72H240z"/><path d="M264 720h24.72v24.72H264zm72 0h24.72v24.72H336zm48 0h24.72v24.72H384zm48 0h24.72v24.72H432zm72 0h24.72v24.72H504zm72 0h24.72v24.72H576z"/><path d="M600 720h24.72v24.72H600z"/><path d="M624 720h24.72v24.72H624zm48 0h24.72v24.72H672zM48 48v168h168V48H48zm144 144H72V72h120v120zM576 48v168h168V48H576zm144 144H600V72h120v120zM48 576v168h168V576H48zm144 144H72V600h120v120z"/><path d="M96 96h72v72H96zm528 0h72v72h-72zM96 624h72v72H96z"/></g></svg>