<svg width="20" height="27" viewBox="0 0 20 27" fill="none" xmlns="http://www.w3.org/2000/svg">
<path fill-rule="evenodd" clip-rule="evenodd" d="M10 5.25C7.37665 5.25 5.25 7.37665 5.25 10C5.25 12.6234 7.37665 14.75 10 14.75C12.6234 14.75 14.75 12.6234 14.75 10C14.75 7.37665 12.6234 5.25 10 5.25ZM6.75 10C6.75 8.20507 8.20507 6.75 10 6.75C11.7949 6.75 13.25 8.20507 13.25 10C13.25 11.7949 11.7949 13.25 10 13.25C8.20507 13.25 6.75 11.7949 6.75 10Z" fill="#7A7A7A"/>
<path fill-rule="evenodd" clip-rule="evenodd" d="M20 10C20 15.2348 16.8555 19.081 10.9923 25.8547C10.7373 26.1494 10.4771 26.4496 10.2118 26.7557L10 27L9.78559 26.7526C9.52119 26.4476 9.26187 26.1484 9.00766 25.8547C3.14448 19.081 0 15.2348 0 10C0 4.47715 4.47715 0 10 0C15.5228 0 20 4.47715 20 10ZM18.5 10C18.5 12.3938 17.7575 14.4896 16.1761 16.9468C14.7524 19.1591 12.7089 21.5771 10 24.709C7.29112 21.5771 5.2476 19.1591 3.82387 16.9468C2.24254 14.4896 1.5 12.3938 1.5 10C1.5 5.30558 5.30558 1.5 10 1.5C14.6944 1.5 18.5 5.30558 18.5 10Z" fill="#7A7A7A"/>
</svg>
