<svg width="153" height="77" viewBox="0 0 153 77" fill="none" xmlns="http://www.w3.org/2000/svg">
<path d="M144.635 29.2496C151.774 31.5132 152.868 33.4365 152.691 35.8805C152.293 41.3768 143.973 43.0349 134.012 43.4312C131.347 43.5372 128.461 43.652 125.392 43.9045C112.711 44.9479 112.352 46.9014 110.635 56.2385C110.383 57.6053 110.103 59.1308 109.75 60.8344C107.859 69.9748 100.558 74.4182 95.6639 76.0086C94.8327 76.2787 94.1673 75.3478 94.497 74.5384C96.5643 69.4639 95.9186 62.0883 88.951 58.2959C77.8755 55.4817 57.6483 59.5241 35.9093 66.9754C31.214 68.5847 29.2264 69.4973 25.4622 69.4973C12.8388 69.4973 2.60547 59.264 2.60547 46.6406C2.60547 39.5394 5.33506 34.2364 9.8719 30.0482C11.1361 28.8811 12.4766 27.7767 13.4884 26.3852C16.1469 22.7293 17.6411 18.0579 15.0976 12.5941C11.9172 5.76207 5.54845 4.13752 2.55421 3.37374C0.57033 2.86768 0.0678198 2.7395 2.95552 1.7249C10.2016 -0.821018 27.7293 -0.625196 36.7379 6.42504C43.3072 11.5663 50.9658 9.11847 55.095 7.79871C55.4956 7.67066 55.8633 7.55313 56.1933 7.45429C91.0816 -2.99682 111.984 2.68985 124.247 9.07992C132.697 12.678 135.289 17.6503 137.472 21.8377C139.207 25.1651 140.683 27.9968 144.635 29.2496Z" fill="#008EC2"/>
</svg>
