<svg width="115" height="118" viewBox="0 0 115 118" fill="none" xmlns="http://www.w3.org/2000/svg">
<path d="M95.3481 46.168C106.056 43.2958 114.319 34.939 114.319 23.6401C114.319 11.0171 104.086 0.783691 91.4622 0.783691C84.8899 0.783691 79.1489 4.01562 74.796 7.99854C74.1017 8.5542 73.4281 9.0708 72.8029 9.5498L72.7905 9.56006C72.1654 10.0396 71.589 10.4819 71.0894 10.8877C70.7345 11.1758 70.3506 11.4849 69.9398 11.8149C62.7983 17.5576 47.4974 29.8608 34.4984 55.9834C31.5123 62.3369 29.6801 67.5127 28.1791 71.7524C25.6297 78.9536 24.0361 83.4551 19.3676 86.4429C17.0271 87.333 11.1791 90.1021 6.5113 94.0581C2.09583 97.7998 1.22602 102.141 0.893753 103.799L0.841492 104.057C3.01717 102.079 10.4938 96.5229 21.0878 99.8188C30.5201 104.349 30.8659 111.594 31.091 116.309C31.1057 116.617 31.1199 116.915 31.136 117.199C33.3776 115.617 37.3466 110.178 35.2896 101.08C32.7183 89.7065 34.3007 87.5308 38.652 82.4873C43.0034 77.4438 58.6873 61.019 85.4782 50.0347C88.765 48.687 92.0632 47.3945 95.3481 46.168Z" fill="#008EC2"/>
</svg>
