<svg width="486" height="59" viewBox="0 0 486 59" fill="none" xmlns="http://www.w3.org/2000/svg">
<path fill-rule="evenodd" clip-rule="evenodd" d="M395.756 14.3461C396.918 13.9467 398.079 13.5395 399.239 13.1261L399.234 13.2106C418.079 7.05703 436.78 1.08926 457.662 2.36245C472.264 3.25357 484.542 7.63833 496.679 11.9726C510.936 17.0639 524.998 22.0858 542.403 21.2941C557.62 20.6037 570.405 15.5705 583.104 10.5712C596.692 5.22183 610.182 -0.0887196 626.447 0.00112412C642.521 0.0885265 654.491 5.40762 666.587 10.7826C677.428 15.5993 688.369 20.4611 702.455 21.643C720.09 23.1215 735.716 18.6562 751.24 13.1261L745.495 110.458L251 118.766L251.349 112.846L-101 118.766L-94.3562 6.18545C-82.7119 8.00796 -71.7947 11.4635 -60.8289 14.9347C-44.4041 20.1337 -27.8706 25.3671 -8.62109 25.1989C11.0618 25.027 28.7251 19.257 46.2295 13.5387C65.4146 7.27139 84.4087 1.06655 105.662 2.36245C120.264 3.25357 132.542 7.63833 144.679 11.9726C158.935 17.0639 172.997 22.0858 190.403 21.2941C205.62 20.6037 218.405 15.5705 231.104 10.5712C244.692 5.22183 258.181 -0.0887196 274.447 0.00112412C290.52 0.0885265 302.491 5.40762 314.587 10.7826C325.427 15.5993 336.369 20.4611 350.455 21.643C363.17 22.7089 374.84 20.685 386.181 17.4C389.388 16.4115 392.576 15.3825 395.756 14.3461Z" fill="url(#paint0_linear_245_849)" fill-opacity="0.5"/>
<defs>
<linearGradient id="paint0_linear_245_849" x1="519.092" y1="36.8604" x2="518.594" y2="-3.86069" gradientUnits="userSpaceOnUse">
<stop stop-color="#0DBDFF"/>
<stop offset="1" stop-color="#61D4FF" stop-opacity="0.5"/>
</linearGradient>
</defs>
</svg>
